<?xml version="1.0" encoding="utf-8"?>
<!-- Generator: Adobe Illustrator 18.1.1, SVG Export Plug-In . SVG Version: 6.00 Build 0)  -->
<svg version="1.1" id="Layer_1" xmlns="http://www.w3.org/2000/svg" xmlns:xlink="http://www.w3.org/1999/xlink" x="0px" y="0px"
	 viewBox="-255 347 100 100" enable-background="new -255 347 100 100" xml:space="preserve">
<g id="Captions">
</g>
<g id="Your_Icon">
	<path d="M-203.7,356.2c-13.9,0-25.2,11.3-25.2,25.2c0,13.9,11.3,25.2,25.2,25.2c13.9,0,25.2-11.3,25.2-25.2
		C-178.5,367.5-189.8,356.2-203.7,356.2z M-205.4,397.8C-205.5,397.8-205.5,397.8-205.4,397.8c-0.2-0.1-0.2-0.2-0.3-0.2c0,0,0,0,0,0
		l-12.6-12.6c-1.1-1.1-1.1-2.9,0-4c1.1-1.1,2.9-1.1,4,0l7.8,7.8l0-21.5c0-1.6,1.3-2.8,2.8-2.8c1.6,0,2.8,1.3,2.8,2.8v21.5l7.8-7.7
		c1.1-1.1,2.9-1.1,4,0c1.1,1.1,1.1,2.9,0,4l-12.6,12.6c-0.1,0.1-0.1,0.1-0.2,0.2c0,0-0.1,0-0.1,0.1c0,0,0,0-0.1,0
		c-0.5,0.3-1,0.6-1.7,0.6C-204.3,398.4-204.9,398.2-205.4,397.8C-205.4,397.8-205.4,397.8-205.4,397.8z"/>
</g>
</svg>
